<?xml version="1.0" standalone="no"?>
<!DOCTYPE svg PUBLIC "-//W3C//DTD SVG 20010904//EN"
 "http://www.w3.org/TR/2001/REC-SVG-20010904/DTD/svg10.dtd">
<svg version="1.0" xmlns="http://www.w3.org/2000/svg"
 width="96.000000pt" height="96.000000pt" viewBox="0 0 96.000000 96.000000"
 preserveAspectRatio="xMidYMid meet">
<metadata>
Created by potrace 1.14, written by Peter Selinger 2001-2017
</metadata>
<g transform="translate(0.000000,96.000000) scale(0.100000,-0.100000)"
fill="#000000" stroke="none">
<path d="M165 823 c119 -78 170 -163 146 -242 -8 -29 -31 -57 -87 -107 -41
-37 -82 -80 -90 -95 -39 -75 8 -162 131 -245 l50 -34 270 1 c268 0 270 0 225
18 -44 17 -45 18 -42 57 1 21 13 60 26 86 28 59 16 62 -24 6 -16 -22 -30 -37
-30 -31 0 24 32 115 56 157 14 25 23 46 21 46 -9 0 -73 -95 -93 -137 -10 -23
-22 -43 -25 -43 -4 0 0 30 8 67 14 69 41 134 88 213 l27 45 -29 -33 c-45 -50
-92 -133 -117 -207 -24 -66 -38 -94 -31 -58 2 10 6 41 9 68 7 86 29 180 42
188 14 8 84 151 84 170 0 6 7 18 16 28 16 17 12 39 -7 39 -5 0 -17 -8 -27 -17
-10 -10 -27 -23 -38 -29 -31 -17 -85 -124 -80 -159 2 -16 -2 -57 -9 -90 -14
-59 -22 -120 -25 -180 l-2 -30 -10 35 c-5 19 -18 46 -29 60 -15 18 -18 19 -11
5 11 -24 13 -123 3 -129 -4 -3 -22 8 -39 23 -48 44 -50 84 -12 204 22 70 31
113 27 139 -18 132 -153 225 -352 243 l-80 7 60 -39z"/>
</g>
</svg>
